<svg width="42" height="42" viewBox="0 0 42 42" fill="none" xmlns="http://www.w3.org/2000/svg">
<g clip-path="url(#clip0_2_99)">
<path d="M21.25 41.5C32.4338 41.5 41.5 32.4338 41.5 21.25C41.5 10.0662 32.4338 1 21.25 1C10.0662 1 1 10.0662 1 21.25C1 32.4338 10.0662 41.5 21.25 41.5Z" fill="#18181B" stroke="url(#paint0_linear_2_99)" stroke-width="1.5"/>
<path d="M29.3372 13.8753C28.8692 13.3476 28.1527 13.1278 27.4684 13.2974L11.5124 17.2401C10.7909 17.4091 10.2609 17.9606 10.0935 18.683C9.92258 19.4181 10.3679 20.3798 10.9856 20.8005L15.7816 24.065C16.2735 24.3996 16.9291 24.3491 17.3655 23.9419L23.2533 18.461C23.5501 18.1752 24.0202 18.1954 24.2914 18.5056C24.5631 18.8059 24.543 19.2728 24.2462 19.5587L18.3486 25.0401C17.9112 25.4463 17.8044 26.1036 18.0909 26.6295L20.8859 31.7757C21.2129 32.387 21.8055 32.7507 22.4715 32.7793C22.5498 32.7827 22.638 32.7865 22.7168 32.7799C23.4849 32.7134 24.1147 32.2129 24.3719 31.4775L29.7249 15.8129C29.9596 15.1462 29.8051 14.403 29.3372 13.8753Z" fill="white"/>
</g>
<defs>
<linearGradient id="paint0_linear_2_99" x1="0.25" y1="21.25" x2="42.25" y2="21.25" gradientUnits="userSpaceOnUse">
<stop stop-color="#0CBAF1"/>
<stop offset="1" stop-color="#E95CE9"/>
</linearGradient>
<clipPath id="clip0_2_99">
<rect width="42" height="42" fill="white"/>
</clipPath>
</defs>
</svg>
